<svg xmlns="http://www.w3.org/2000/svg" xmlns:xlink="http://www.w3.org/1999/xlink" version="1.1" id="Layer_1" x="0px" y="0px" viewBox="0 0 780 440" xml:space="preserve"> <g> <rect x="0" y="0" opacity="0.1" fill="#CC0F2F" width="780" height="50"></rect> <rect x="0" y="390.3" opacity="0.1" fill="#CC0F2F" width="780" height="50"></rect> <rect x="534.5" y="194.7" transform="matrix(-1.836970e-16 1 -1 -1.836970e-16 974.471 -535.1332)" opacity="0.1" fill="#CC0F2F" width="440.6" height="50"></rect> <rect x="-195.3" y="194.7" transform="matrix(-1.836970e-16 1 -1 -1.836970e-16 244.69 194.6478)" opacity="0.1" fill="#CC0F2F" width="440.6" height="50"></rect> </g> <linearGradient id="SVGID_1_" gradientUnits="userSpaceOnUse" x1="527.5999" y1="-18.1942" x2="110.2426" y2="701.5005"> <stop offset="0" style="stop-color:#FFFFFF"></stop> <stop offset="0.7133" style="stop-color:#A1C2F8"></stop> </linearGradient> <rect x="-3.3" y="-2.6" fill="url(#SVGID_1_)" width="786.5" height="443.7"></rect> <line fill="#A1C2F8" stroke="#162020" stroke-width="1.5" stroke-miterlimit="10" x1="247.5" y1="220" x2="121.6" y2="220"></line> <polyline fill="none" stroke="#162020" stroke-width="1.5" stroke-miterlimit="10" points="635.4,313.5 302.7,313.5 302.7,125.4 639.7,125.4 "></polyline> <line fill="none" stroke="#162020" stroke-width="1.5" stroke-miterlimit="10" x1="455.3" y1="139.6" x2="455.3" y2="303.2"></line> <g> <path fill="#026661" stroke="#162020" stroke-width="1.5" stroke-miterlimit="10" d="M141.3,285.1L141.3,285.1 c-25.9,0-46.9-21-46.9-46.9v-34.4c0-25.9,21-46.9,46.9-46.9h0c25.9,0,46.9,21,46.9,46.9v34.4C188.2,264.1,167.2,285.1,141.3,285.1z "></path> <g> <g> <path fill="#FFFFFF" d="M143.3,189.3c3.5,0,7,0,10.5,0c0.1,0.6,0.1,1.2,0.2,1.8c0.4,2.4,1.1,4.6,2.4,6.6c1,1.5,2.4,2.5,4.1,2.9 c1.7,0.5,3.4,0.4,5.1,0.4c1.2,0,2.5,0,3.7,0c0,3.5,0,7,0,10.5c-0.7,0-1.3,0-2,0c-1.7,0-3.4,0-5.1-0.1c-2.1-0.1-4-0.7-5.9-1.5 c-0.9-0.4-1.7-0.8-2.6-1.3c0,0.1,0,0.3,0,0.4c0,7.9,0,15.8,0,23.6c0,3.1-0.7,6.1-2.2,8.9c-2.1,4.1-5.3,7.2-9.6,9.1 c-3.2,1.4-6.5,1.9-10,1.6c-4.1-0.4-7.8-2-10.9-4.7c-2.7-2.3-4.6-5.2-5.8-8.6c-1-2.8-1.3-5.8-0.9-8.7c0.6-4.9,2.8-8.9,6.4-12.2 c2.5-2.3,5.5-3.8,8.9-4.6c1.8-0.4,3.7-0.5,5.5-0.5c0.7,0,1.4,0,2.2,0c0,3.5,0,7,0,10.5c-0.7,0-1.5,0-2.2,0c-1.1,0-2.3,0-3.4,0.3 c-3.8,0.9-6.6,4.2-6.9,8.1c-0.3,3.7,1.2,6.6,4.3,8.6c1.2,0.8,2.6,1.2,4,1.3c2.9,0.2,5.4-0.7,7.4-2.7c1.9-1.9,2.7-4.2,2.6-6.9 c0-1.9,0-3.7,0-5.6c0-1.8,0-3.7,0-5.5c0-1.8,0-3.7,0-5.5c0-1.8,0-3.7,0-5.5c0-1.8,0-3.7,0-5.5c0-1.8,0-3.7,0-5.5 c0-1.8,0-3.7,0-5.5c0-1.3,0-2.6,0-3.9C143.3,189.7,143.3,189.5,143.3,189.3z"></path> </g> </g> </g> <g> <g> <path fill="#931847" stroke="#162020" stroke-width="1.5" stroke-miterlimit="10" d="M518.9,282.9c-1.4-5.4-5.7-9.7-11.1-11.1 c-9.8-2.7-49.3-2.7-49.3-2.7s-39.4,0-49.3,2.7c-5.4,1.4-9.7,5.7-11.1,11.1c-2.7,9.8-2.7,30.4-2.7,30.4s0,20.5,2.7,30.4 c1.4,5.4,5.7,9.7,11.1,11.1c9.8,2.7,49.3,2.7,49.3,2.7s39.4,0,49.3-2.7c5.4-1.4,9.7-5.7,11.1-11.1c2.7-9.8,2.7-30.4,2.7-30.4 S521.5,292.7,518.9,282.9z"></path> </g> <g> <polygon fill="#FFFFFF" points="445.9,332.1 478.6,313.2 445.9,294.3 "></polygon> </g> </g> <g> <g> <path fill="#205BC3" d="M638.1,364c-29.8,0-54-24.2-54-54c0-29.8,24.2-54,54-54s54,24.2,54,54C692.1,339.8,667.9,364,638.1,364z"></path> <path fill="#0C3F89" stroke="#162020" stroke-width="1.3566" stroke-miterlimit="10" d="M638.1,256.5c-29.5,0-53.5,24-53.5,53.5 s24,53.5,53.5,53.5s53.5-24,53.5-53.5S667.6,256.5,638.1,256.5L638.1,256.5z"></path> </g> <g> <g> <path fill="#FFFFFF" d="M665.8,333.4c-3.8,0-7.7,0-11.5,0c0-0.1,0-0.2,0-0.3c0-6.2,0-12.4,0-18.6c0-1.3-0.1-2.7-0.6-3.9 c-0.4-1.1-0.9-2-1.9-2.6c-0.9-0.5-1.8-0.7-2.9-0.7c-2.2,0-3.8,1.1-4.9,3.1c-0.6,1-0.8,2.2-0.8,3.4c0,6.5,0,12.9,0,19.4 c0,0.1,0,0.2,0,0.3c-3.8,0-7.7,0-11.6,0c0-11.4,0-22.7,0-34.1c3.8,0,7.6,0,11.5,0c0,1.6,0,3.1,0,4.7c0,0,0.1,0,0.1,0 c0-0.1,0.1-0.1,0.1-0.2c0.8-1.2,1.7-2.4,2.9-3.2c1.3-1,2.8-1.5,4.4-1.8c2.2-0.3,4.4-0.2,6.5,0.4c3.4,1.1,5.7,3.3,7.1,6.5 c0.7,1.6,1.1,3.2,1.3,5c0.1,1.1,0.2,2.2,0.2,3.3c0,6.4,0,12.7,0,19.1C665.8,333.2,665.8,333.3,665.8,333.4z"></path> <path fill="#FFFFFF" d="M614.8,299.3c3.8,0,7.6,0,11.4,0c0,11.4,0,22.7,0,34.1c-0.1,0-0.1,0-0.2,0c-3.6,0-7.2,0-10.9,0 c-0.2,0-0.3-0.1-0.3-0.3c0-6,0-12,0-18c0-3.6,0-7.2,0-10.8c0-1.6,0-3.2,0-4.7C614.8,299.5,614.8,299.4,614.8,299.3z"></path> <path fill="#FFFFFF" d="M620.3,283.3c1.3,0,2.5,0.3,3.6,1c1.5,0.9,2.3,2.3,2.5,3.9c0.3,1.7-0.1,3.3-1.3,4.6c-0.9,1-2,1.6-3.3,1.8 c-1.5,0.3-3.1,0.2-4.5-0.4c-2.2-1-3.3-2.8-3.3-5.2c0-2.8,1.9-5,4.6-5.5C619.2,283.4,619.8,283.4,620.3,283.3z"></path> </g> </g> </g> <g> <path fill="#CE3665" stroke="#162020" stroke-width="1.5" stroke-miterlimit="10" d="M657,182.3h-44.5c-16.4,0-29.8-13.4-29.8-29.8 v-45.9c0-16.4,13.4-29.8,29.8-29.8H657c16.4,0,29.8,13.4,29.8,29.8v45.9C686.8,168.8,673.4,182.3,657,182.3z"></path> <g id="SvbjIu.tif_00000003104075504564312980000006200288039133969073_"> <g> <path fill="#FFFFFF" d="M651.8,165.3c-1.5,0.1-3,0.1-4.4,0.2c-1.1,0-2.3,0.1-3.4,0.1c-7.3,0-14.5,0-21.8,0 c-1.7,0-3.4-0.3-5.1-0.4c-2.1-0.2-4.1-0.7-6-1.6c-1.6-0.7-3.1-1.6-4.5-2.7c-1.5-1.3-2.8-2.7-3.8-4.3c-1.3-2-2.1-4.2-2.6-6.5 c-0.3-1.3-0.4-2.6-0.5-3.9c-0.1-1.4-0.2-2.8-0.2-4.2c0-7.2,0-14.4,0-21.6c0-1.3,0-2.7,0-4c0.1-1.5,0.3-2.9,0.4-4.4 c0.3-2.6,1.1-5.1,2.3-7.4c1.6-2.9,3.9-5.3,6.7-7c2.3-1.4,4.8-2.1,7.4-2.6c1.8-0.3,3.5-0.4,5.3-0.4c2.5,0,5-0.1,7.5-0.1 c4.5,0,9.1-0.1,13.6-0.1c1.3,0,2.6,0,3.9,0.1c1.4,0,2.8,0.1,4.2,0.2c2.8,0.2,5.6,0.8,8.2,1.9c1.7,0.8,3.3,1.8,4.7,3 c1.5,1.3,2.7,2.8,3.7,4.5c1,1.8,1.7,3.8,2.2,5.8c0.4,1.9,0.7,3.8,0.7,5.8c0,0.7,0.1,1.5,0.1,2.2c0,7.3,0.1,14.7,0.1,22 c0,1.3,0,2.6-0.1,3.8c-0.1,2.2-0.2,4.4-0.7,6.5c-0.8,3.3-2.2,6.4-4.6,8.9c-1.6,1.7-3.4,3.1-5.5,4.1c-1.8,0.8-3.7,1.4-5.6,1.7 C653.1,165,652.4,165.1,651.8,165.3z M663.9,114.8c-0.1-0.8-0.3-1.4-0.3-1.9c-0.2-1.8-0.7-3.6-1.6-5.2c-1-2-2.5-3.5-4.5-4.6 c-2-1.1-4.3-1.6-6.6-1.9c-1.2-0.1-2.5-0.2-3.8-0.2c-1.5-0.1-3-0.1-4.5-0.1c-3.5,0-6.9,0-10.4,0c-2.6,0-5.3,0.1-7.9,0.1 c-1.8,0-3.5,0.1-5.3,0.2c-0.8,0-1.7,0.1-2.4,0.2c-1.4,0.3-2.9,0.7-4.2,1.4c-2,1.1-3.6,2.7-4.8,4.7c-1.2,2.1-1.6,4.4-1.9,6.7 c-0.1,1.3-0.2,2.7-0.2,4c0,8.1,0.1,16.3,0.1,24.4c0,1.2,0.1,2.4,0.2,3.6c0.1,1.8,0.5,3.5,1.2,5.2c1.4,3.3,3.9,5.4,7.2,6.6 c2.1,0.8,4.4,0.9,6.6,1.1c1.9,0.1,3.8,0.1,5.7,0.1c0.6,0,1.2,0,1.8,0c5.3,0,10.7,0,16,0c1.5,0,3-0.1,4.6-0.2c1-0.1,2,0,3-0.2 c1.3-0.3,2.7-0.6,4-1.1c2.9-1.1,5-3.2,6.3-6.1c0.8-1.8,1.2-3.7,1.4-5.7c0.1-1.4,0.2-2.9,0.2-4.3c0.1-2,0.1-4,0.1-6 c0-4-0.1-7.9-0.1-11.9C664,120.7,663.9,117.6,663.9,114.8z"></path> <path fill="#FFFFFF" d="M636.1,148.3c-11.5,0-18.8-8.2-19.5-16.6c-0.4-5.5,1.2-10.3,5-14.2c3.8-3.9,8.5-5.9,14-5.6 c9.6,0.4,16.6,7.8,17.4,16.5c0.5,5.4-1.1,10.1-4.7,14.1C644.7,146.3,640.1,148.2,636.1,148.3z M634.7,141.9 c6.6,0.2,12.5-5.2,12.1-12.6c-0.3-5.4-4.8-11.5-12.9-11.1c-5.8,0.3-10.6,5.2-10.9,11.3C622.6,136.6,628.6,142,634.7,141.9z"></path> <path fill="#FEFEFE" d="M653.7,115.2c-2.2,0.2-4.1-2.1-4.2-4c-0.1-2.3,1.8-4.4,4-4.5c2.3-0.1,4.3,1.8,4.5,3.7 C658.3,113.5,655.9,115.5,653.7,115.2z"></path> </g> </g> </g> <g> <path fill="#205BC3" stroke="#162020" stroke-width="1.5" stroke-miterlimit="10" d="M361.4,233.9l-44.9,44.9 c-7.7,7.7-20.3,7.7-28,0l-44.9-44.9c-7.7-7.7-7.7-20.3,0-28l44.9-44.9c7.7-7.7,20.3-7.7,28,0l44.9,44.9 C369.2,213.7,369.2,226.2,361.4,233.9z"></path> <g id="eoZmYY_00000101074092851035928380000001614363013379573175_"> <g> <path fill="#FFFFFF" d="M272.9,242.6c7,0.6,13.2-1.2,18.8-5.4c-5.9-0.5-9.8-3.4-12-8.9c2,0.4,3.8,0.2,5.7-0.2 c-0.3-0.1-0.6-0.3-0.9-0.4c-1.5-0.4-2.9-1.1-4.2-2.1c-1.2-0.9-2.3-2.1-3.1-3.4c-0.8-1.2-1.3-2.5-1.6-3.9c-0.2-0.6-0.2-1.3-0.3-2 c0-0.3-0.1-0.7-0.1-1.1c1.8,1,3.7,1.5,5.8,1.7c-0.1-0.2-0.2-0.3-0.3-0.4c-1.6-1.2-2.9-2.7-3.8-4.4c-0.7-1.3-1.2-2.7-1.4-4.1 c-0.1-0.9-0.1-1.8-0.1-2.7c0.1-1.9,0.7-3.6,1.5-5.2c0-0.1,0-0.1,0.1-0.2c0.1,0.1,0.2,0.1,0.3,0.2c1.1,1.1,2.1,2.4,3.3,3.4 c1.7,1.7,3.6,3.1,5.7,4.3c1.1,0.7,2.2,1.3,3.4,1.9c2.2,1.1,4.5,1.9,6.9,2.5c1.3,0.3,2.6,0.5,3.9,0.7c0.8,0.1,1.6,0.2,2.4,0.3 c0.2,0,0.4-0.1,0.7-0.1c-0.1-0.4-0.2-0.8-0.3-1.3c0,0,0-0.1,0-0.1c0-0.5-0.1-1-0.1-1.5c0.1-0.8,0.2-1.6,0.3-2.4 c0.1-1.2,0.6-2.3,1.2-3.4c0.8-1.6,2-3,3.3-4.1c1.1-1,2.4-1.7,3.8-2.2c1-0.4,2.1-0.6,3.1-0.6c0.8,0,1.7-0.1,2.5,0 c1.1,0.1,2.3,0.4,3.3,0.8c1.1,0.4,2.1,1,3,1.7c0.4,0.3,0.7,0.6,1,0.9c0.3,0.4,0.7,0.5,1.2,0.3c1.5-0.4,3-0.8,4.4-1.4 c1-0.4,1.9-0.9,2.9-1.4c-0.4,1.4-1.2,2.7-2.1,3.9c-0.9,1.2-2.1,2.1-3.3,3.1c1.2-0.1,2.4-0.3,3.6-0.7c1.2-0.3,2.3-0.7,3.5-1.1 c-0.6,0.8-1.2,1.5-1.8,2.3c-0.4,0.5-0.8,0.9-1.2,1.3c-1,0.9-2,1.7-3,2.5c-0.1,0.1-0.2,0.2-0.2,0.3c0,0.6,0,1.1,0,1.7 c-0.1,1-0.1,2-0.2,3c-0.1,1-0.2,2-0.4,3c-0.1,0.7-0.2,1.4-0.4,2.1c-0.5,1.8-1.1,3.6-1.7,5.3c-0.6,1.7-1.4,3.3-2.3,4.8 c-0.9,1.5-1.8,3-2.9,4.3c-0.6,0.8-1.2,1.5-1.9,2.2c-0.6,0.7-1.2,1.3-1.8,1.9c-1.3,1.1-2.7,2.3-4.1,3.3c-1.6,1.2-3.4,2.2-5.3,3 c-1.1,0.5-2.2,1-3.4,1.3c-1.5,0.5-3,0.9-4.6,1.2c-1,0.2-2,0.3-3,0.4c-0.7,0.1-1.4,0.1-2,0.1c-1.1,0.1-2.3,0.1-3.4,0.1 c-0.8,0-1.7-0.1-2.5-0.2c-0.7-0.1-1.5-0.2-2.2-0.3c-0.9-0.2-1.8-0.3-2.7-0.5c-1.9-0.4-3.7-1-5.4-1.8c-1.6-0.7-3-1.5-4.6-2.3 C273.5,243,273.2,242.8,272.9,242.6z"></path> </g> </g> </g> <g> <g> <path fill="#0C3F89" d="M457.4,184.5c-29.9,0-54.2-24.3-54.2-54.2s24.3-54.2,54.2-54.2c29.9,0,54.2,24.3,54.2,54.2 S487.3,184.5,457.4,184.5z"></path> <path fill="#0A2960" stroke="#162020" stroke-width="1.3566" stroke-miterlimit="10" d="M457.4,76.6c-29.6,0-53.7,24.1-53.7,53.7 s24.1,53.7,53.7,53.7c29.6,0,53.7-24.1,53.7-53.7S487,76.6,457.4,76.6L457.4,76.6z"></path> </g> <g> <g> <path fill="#FFFFFF" d="M448.5,164.3c0-11.1,0-22.2,0-33.4c-2.3,0-4.6,0-7,0c0-3.8,0-7.6,0-11.4c2.3,0,4.6,0,6.9,0 c0-0.2,0-0.3,0-0.5c0-3,0-6.1,0-9.1c0-2.2,0.4-4.3,1.4-6.3c1.2-2.2,3-3.7,5.3-4.6c2.3-0.9,4.7-1.2,7.2-1.2c3.2,0,6.3,0,9.5,0 c0.1,0,0.1,0,0.2,0c0,3.9,0,7.7,0,11.7c-0.1,0-0.3,0-0.4,0c-2.2,0-4.4,0-6.6,0c-0.3,0-0.5,0-0.8,0c-1.6,0.1-2.4,0.8-2.5,2.4 c-0.1,0.7-0.1,1.5-0.1,2.2c0,1.7,0,3.3,0,5c0,0.1,0,0.3,0,0.4c3.5,0,6.9,0,10.4,0c-0.3,3.8-0.7,7.5-1,11.2c-3.1,0-6.2,0-9.3,0 c0,11.2,0,22.4,0,33.5C457.4,164.3,453,164.3,448.5,164.3z"></path> </g> </g> </g> </svg>